# xmcd CD database file
#
# Track frame offsets:
#	150
#	15691
#	31957
#	47636
#	62702
#	80547
#	97678
#	116497
#	133367
#
# Disc length: 1963 seconds
#
# Revision: 0
# Processed by: cddbd v1.4PL0 Copyright (c) Steve Scherf et al.
# Submitted via: CDex 1.50
#
DISCID=6e07a909
DTITLE=4 Runner - Getaway Car
DYEAR=2003
DGENRE=Country
TTITLE0=Ragged Angel
TTITLE1=Shower The People
TTITLE2=Getaway Car
TTITLE3=God, Family and Country
TTITLE4=Forrest County Line
TTITLE5=Love Survivors
TTITLE6=Tidal Wave
TTITLE7=Love a Little Stronger
TTITLE8=House at the End of the Road
EXTD=YEAR: 2003
EXTT0=
EXTT1=
EXTT2=
EXTT3=
EXTT4=
EXTT5=
EXTT6=
EXTT7=
EXTT8=
PLAYORDER=
